%TF.GenerationSoftware,KiCad,Pcbnew,7.0.9*%
%TF.CreationDate,2025-02-03T19:38:26-05:00*%
%TF.ProjectId,squircuit_relay_prototyping,73717569-7263-4756-9974-5f72656c6179,rev?*%
%TF.SameCoordinates,Original*%
%TF.FileFunction,Copper,L1,Top*%
%TF.FilePolarity,Positive*%
%FSLAX46Y46*%
G04 Gerber Fmt 4.6, Leading zero omitted, Abs format (unit mm)*
G04 Created by KiCad (PCBNEW 7.0.9) date 2025-02-03 19:38:26*
%MOMM*%
%LPD*%
G01*
G04 APERTURE LIST*
G04 Aperture macros list*
%AMRoundRect*
0 Rectangle with rounded corners*
0 $1 Rounding radius*
0 $2 $3 $4 $5 $6 $7 $8 $9 X,Y pos of 4 corners*
0 Add a 4 corners polygon primitive as box body*
4,1,4,$2,$3,$4,$5,$6,$7,$8,$9,$2,$3,0*
0 Add four circle primitives for the rounded corners*
1,1,$1+$1,$2,$3*
1,1,$1+$1,$4,$5*
1,1,$1+$1,$6,$7*
1,1,$1+$1,$8,$9*
0 Add four rect primitives between the rounded corners*
20,1,$1+$1,$2,$3,$4,$5,0*
20,1,$1+$1,$4,$5,$6,$7,0*
20,1,$1+$1,$6,$7,$8,$9,0*
20,1,$1+$1,$8,$9,$2,$3,0*%
G04 Aperture macros list end*
%TA.AperFunction,ComponentPad*%
%ADD10R,1.700000X1.700000*%
%TD*%
%TA.AperFunction,ComponentPad*%
%ADD11O,1.700000X1.700000*%
%TD*%
%TA.AperFunction,ComponentPad*%
%ADD12R,3.000000X3.000000*%
%TD*%
%TA.AperFunction,ComponentPad*%
%ADD13C,3.000000*%
%TD*%
%TA.AperFunction,SMDPad,CuDef*%
%ADD14RoundRect,0.150000X0.150000X-0.825000X0.150000X0.825000X-0.150000X0.825000X-0.150000X-0.825000X0*%
%TD*%
%TA.AperFunction,ComponentPad*%
%ADD15C,1.600000*%
%TD*%
%TA.AperFunction,ComponentPad*%
%ADD16O,1.600000X1.600000*%
%TD*%
%TA.AperFunction,ViaPad*%
%ADD17C,0.800000*%
%TD*%
%TA.AperFunction,Conductor*%
%ADD18C,0.250000*%
%TD*%
%TA.AperFunction,Conductor*%
%ADD19C,0.500000*%
%TD*%
G04 APERTURE END LIST*
D10*
%TO.P,J1,1,Pin_1*%
%TO.N,Net-(J1-Pin_1)*%
X26670000Y-27686000D03*
D11*
%TO.P,J1,2,Pin_2*%
%TO.N,GND*%
X26670000Y-25146000D03*
%TO.P,J1,3,Pin_3*%
%TO.N,Net-(J1-Pin_3)*%
X26670000Y-22606000D03*
%TO.P,J1,4,Pin_4*%
%TO.N,Net-(J1-Pin_4)*%
X26670000Y-20066000D03*
%TO.P,J1,5,Pin_5*%
%TO.N,Net-(J1-Pin_5)*%
X26670000Y-17526000D03*
%TO.P,J1,6,Pin_6*%
%TO.N,unconnected-(J1-Pin_6-Pad6)*%
X26670000Y-14986000D03*
%TD*%
D12*
%TO.P,J3,1,Pin_1*%
%TO.N,/OUTB*%
X61849000Y-16764000D03*
D13*
%TO.P,J3,2,Pin_2*%
%TO.N,/OUTA*%
X56769000Y-16764000D03*
%TD*%
D14*
%TO.P,U1,1,Pin_1*%
%TO.N,GND*%
X45212000Y-27621000D03*
%TO.P,U1,2,Pin_2*%
%TO.N,/OUTA*%
X46482000Y-27621000D03*
%TO.P,U1,3,Pin_3*%
%TO.N,/INA*%
X47752000Y-27621000D03*
%TO.P,U1,4,Pin_4*%
%TO.N,/VCC*%
X49022000Y-27621000D03*
%TO.P,U1,5,Pin_5*%
X50292000Y-27621000D03*
%TO.P,U1,6,Pin_6*%
%TO.N,/INB*%
X51562000Y-27621000D03*
%TO.P,U1,7,Pin_7*%
%TO.N,/OUTB*%
X52832000Y-27621000D03*
%TO.P,U1,8,Pin_8*%
%TO.N,GND*%
X54102000Y-27621000D03*
%TO.P,U1,9,Pin_9*%
X54102000Y-22671000D03*
%TO.P,U1,10,Pin_10*%
%TO.N,/OUTB*%
X52832000Y-22671000D03*
%TO.P,U1,11,Pin_11*%
%TO.N,/PWM*%
X51562000Y-22671000D03*
%TO.P,U1,12,Pin_12*%
%TO.N,/VCC*%
X50292000Y-22671000D03*
%TO.P,U1,13,Pin_13*%
%TO.N,/CS*%
X49022000Y-22671000D03*
%TO.P,U1,14,Pin_14*%
%TO.N,/SEL0*%
X47752000Y-22671000D03*
%TO.P,U1,15,Pin_15*%
%TO.N,/OUTA*%
X46482000Y-22671000D03*
%TO.P,U1,16,Pin_16*%
%TO.N,GND*%
X45212000Y-22671000D03*
%TD*%
D12*
%TO.P,J2,1,Pin_1*%
%TO.N,/VCC*%
X51308000Y-16764000D03*
D13*
%TO.P,J2,2,Pin_2*%
%TO.N,GND*%
X46228000Y-16764000D03*
%TD*%
D15*
%TO.P,R2,1*%
%TO.N,Net-(J1-Pin_3)*%
X31877000Y-21209000D03*
D16*
%TO.P,R2,2*%
%TO.N,/INB*%
X42037000Y-21209000D03*
%TD*%
D15*
%TO.P,R4,1*%
%TO.N,Net-(J1-Pin_5)*%
X31877000Y-14605000D03*
D16*
%TO.P,R4,2*%
%TO.N,/PWM*%
X42037000Y-14605000D03*
%TD*%
D15*
%TO.P,R3,1*%
%TO.N,Net-(J1-Pin_4)*%
X31877000Y-17907000D03*
D16*
%TO.P,R3,2*%
%TO.N,/SEL0*%
X42037000Y-17907000D03*
%TD*%
D15*
%TO.P,R1,1*%
%TO.N,Net-(J1-Pin_1)*%
X31877000Y-27559000D03*
D16*
%TO.P,R1,2*%
%TO.N,/INA*%
X42037000Y-27559000D03*
%TD*%
D15*
%TO.P,R5,1*%
%TO.N,GND*%
X31877000Y-24384000D03*
D16*
%TO.P,R5,2*%
%TO.N,/CS*%
X42037000Y-24384000D03*
%TD*%
D17*
%TO.N,GND*%
X56592000Y-26075750D03*
X33732000Y-20995750D03*
X33732000Y-23535750D03*
X36272000Y-15915750D03*
X43892000Y-20995750D03*
X61672000Y-20995750D03*
X33732000Y-15915750D03*
X36272000Y-23535750D03*
X59132000Y-23535750D03*
X59132000Y-26075750D03*
X33732000Y-26075750D03*
X28652000Y-28615750D03*
X48972000Y-15915750D03*
X33732000Y-28615750D03*
X38812000Y-20995750D03*
X61672000Y-23535750D03*
X36272000Y-28615750D03*
X54052000Y-15915750D03*
X59132000Y-28615750D03*
X38812000Y-18455750D03*
X28652000Y-26075750D03*
X56592000Y-28615750D03*
X38812000Y-26075750D03*
X38812000Y-28615750D03*
X36272000Y-26075750D03*
X54052000Y-20995750D03*
X38812000Y-15915750D03*
X36272000Y-18455750D03*
X43892000Y-23535750D03*
X61672000Y-28615750D03*
X33732000Y-18455750D03*
X38812000Y-23535750D03*
X31192000Y-26075750D03*
X59132000Y-15915750D03*
X36272000Y-20995750D03*
X28652000Y-23535750D03*
X61672000Y-26075750D03*
%TO.N,/OUTA*%
X48137766Y-20066000D03*
%TO.N,/INA*%
X47371000Y-25908000D03*
%TO.N,/PWM*%
X51141500Y-19050000D03*
%TO.N,/CS*%
X48133000Y-24384000D03*
%TD*%
D18*
%TO.N,Net-(J1-Pin_1)*%
X31750000Y-27686000D02*
X31877000Y-27559000D01*
X26670000Y-27686000D02*
X31750000Y-27686000D01*
%TO.N,Net-(J1-Pin_3)*%
X26670000Y-22606000D02*
X28067000Y-21209000D01*
X28067000Y-21209000D02*
X31877000Y-21209000D01*
%TO.N,Net-(J1-Pin_4)*%
X26670000Y-20066000D02*
X28829000Y-17907000D01*
X28829000Y-17907000D02*
X31877000Y-17907000D01*
%TO.N,Net-(J1-Pin_5)*%
X29591000Y-14605000D02*
X31877000Y-14605000D01*
X26670000Y-17526000D02*
X29591000Y-14605000D01*
D19*
%TO.N,/VCC*%
X50292000Y-22671000D02*
X50292000Y-27621000D01*
X50292000Y-17780000D02*
X50292000Y-22671000D01*
X50292000Y-22671000D02*
X50292000Y-26351000D01*
X50292000Y-26351000D02*
X49022000Y-27621000D01*
X51308000Y-16764000D02*
X50292000Y-17780000D01*
%TO.N,/OUTA*%
X46482000Y-22671000D02*
X46482000Y-21696001D01*
X48133000Y-20066000D02*
X48137766Y-20066000D01*
X48137766Y-20066000D02*
X48112001Y-20066000D01*
X46482000Y-27621000D02*
X46482000Y-22671000D01*
X46482000Y-21696001D02*
X48112001Y-20066000D01*
D18*
%TO.N,/INA*%
X47752000Y-26289000D02*
X47752000Y-27621000D01*
X47371000Y-25908000D02*
X47752000Y-26289000D01*
%TO.N,/INB*%
X40894000Y-29210000D02*
X50546000Y-29210000D01*
X40640000Y-22606000D02*
X40640000Y-28956000D01*
X50546000Y-29210000D02*
X51562000Y-28194000D01*
X40640000Y-28956000D02*
X40894000Y-29210000D01*
X42037000Y-21209000D02*
X40640000Y-22606000D01*
X51562000Y-28194000D02*
X51562000Y-27621000D01*
D19*
%TO.N,/OUTB*%
X52832000Y-22671000D02*
X52832000Y-26289000D01*
X61849000Y-17272000D02*
X61849000Y-16764000D01*
X52832000Y-26289000D02*
X61849000Y-17272000D01*
X52832000Y-27621000D02*
X52832000Y-22671000D01*
D18*
%TO.N,/PWM*%
X51141500Y-19050000D02*
X51268500Y-19177000D01*
X51522500Y-19431000D02*
X51562000Y-19431000D01*
X51562000Y-19470500D02*
X51141500Y-19050000D01*
X51141500Y-19050000D02*
X51522500Y-19431000D01*
X51562000Y-22671000D02*
X51562000Y-19470500D01*
%TO.N,/CS*%
X49022000Y-23645999D02*
X49022000Y-22671000D01*
X48283999Y-24384000D02*
X49022000Y-23645999D01*
X48133000Y-24384000D02*
X48283999Y-24384000D01*
%TO.N,/SEL0*%
X43180000Y-19050000D02*
X48387000Y-19050000D01*
X49149000Y-20320000D02*
X47752000Y-21717000D01*
X49149000Y-19812000D02*
X49149000Y-20320000D01*
X47752000Y-21717000D02*
X47752000Y-22671000D01*
X42037000Y-17907000D02*
X43180000Y-19050000D01*
X48387000Y-19050000D02*
X49149000Y-19812000D01*
%TD*%
%TA.AperFunction,Conductor*%
%TO.N,GND*%
G36*
X64265390Y-12826612D02*
G01*
X64332366Y-12846506D01*
X64377955Y-12899453D01*
X64389000Y-12950611D01*
X64389000Y-29467000D01*
X64369315Y-29534039D01*
X64316511Y-29579794D01*
X64265000Y-29591000D01*
X50924687Y-29591000D01*
X50857648Y-29571315D01*
X50811893Y-29518511D01*
X50801949Y-29449353D01*
X50830974Y-29385797D01*
X50837006Y-29379319D01*
X51383507Y-28832819D01*
X51444830Y-28799334D01*
X51471188Y-28796500D01*
X51745261Y-28796500D01*
X51773256Y-28792421D01*
X51813393Y-28786573D01*
X51918483Y-28735198D01*
X52001198Y-28652483D01*
X52052573Y-28547393D01*
X52062500Y-28479260D01*
X52331500Y-28479260D01*
X52341426Y-28547391D01*
X52392803Y-28652485D01*
X52475514Y-28735196D01*
X52475515Y-28735196D01*
X52475517Y-28735198D01*
X52580607Y-28786573D01*
X52614673Y-28791536D01*
X52648739Y-28796500D01*
X52648740Y-28796500D01*
X53015261Y-28796500D01*
X53043256Y-28792421D01*
X53083393Y-28786573D01*
X53188483Y-28735198D01*
X53188486Y-28735195D01*
X53196847Y-28729227D01*
X53197642Y-28730341D01*
X53249481Y-28702031D01*
X53319173Y-28707010D01*
X53375110Y-28748877D01*
X53382580Y-28760074D01*
X53434314Y-28847552D01*
X53434321Y-28847561D01*
X53550438Y-28963678D01*
X53550447Y-28963685D01*
X53691801Y-29047281D01*
X53849514Y-29093100D01*
X53849511Y-29093100D01*
X53851998Y-29093295D01*
X53852000Y-29093295D01*
X53852000Y-27871000D01*
X54352000Y-27871000D01*
X54352000Y-29093295D01*
X54352001Y-29093295D01*
X54354486Y-29093100D01*
X54512198Y-29047281D01*
X54653552Y-28963685D01*
X54653561Y-28963678D01*
X54769678Y-28847561D01*
X54769685Y-28847552D01*
X54853282Y-28706196D01*
X54853283Y-28706193D01*
X54899099Y-28548495D01*
X54899100Y-28548489D01*
X54902000Y-28511644D01*
X54902000Y-27871000D01*
X54352000Y-27871000D01*
X53852000Y-27871000D01*
X53852000Y-26148703D01*
X54352000Y-26148703D01*
X54352000Y-27371000D01*
X54902000Y-27371000D01*
X54902000Y-26730356D01*
X54899100Y-26693510D01*
X54899099Y-26693504D01*
X54853283Y-26535806D01*
X54853282Y-26535803D01*
X54769685Y-26394447D01*
X54769678Y-26394438D01*
X54653561Y-26278321D01*
X54653552Y-26278314D01*
X54512196Y-26194717D01*
X54512193Y-26194716D01*
X54354494Y-26148900D01*
X54354497Y-26148900D01*
X54352000Y-26148703D01*
X53852000Y-26148703D01*
X53852000Y-26148702D01*
X53820649Y-26119733D01*
X53784771Y-26059778D01*
X53787002Y-25989944D01*
X53817120Y-25940982D01*
X61257284Y-18500819D01*
X61318607Y-18467334D01*
X61344965Y-18464500D01*
X63368750Y-18464500D01*
X63368751Y-18464499D01*
X63383568Y-18461552D01*
X63427229Y-18452868D01*
X63427229Y-18452867D01*
X63427231Y-18452867D01*
X63493552Y-18408552D01*
X63537867Y-18342231D01*
X63537867Y-18342229D01*
X63537868Y-18342229D01*
X63549499Y-18283752D01*
X63549500Y-18283750D01*
X63549500Y-15244249D01*
X63549499Y-15244247D01*
X63537868Y-15185770D01*
X63537867Y-15185769D01*
X63493552Y-15119447D01*
X63427230Y-15075132D01*
X63427229Y-15075131D01*
X63368752Y-15063500D01*
X63368748Y-15063500D01*
X60329252Y-15063500D01*
X60329247Y-15063500D01*
X60270770Y-15075131D01*
X60270769Y-15075132D01*
X60204447Y-15119447D01*
X60160132Y-15185769D01*
X60160131Y-15185770D01*
X60148500Y-15244247D01*
X60148500Y-18284033D01*
X60128815Y-18351072D01*
X60112181Y-18371714D01*
X55113681Y-23370214D01*
X55052358Y-23403699D01*
X54982666Y-23398715D01*
X54926733Y-23356843D01*
X54902316Y-23291379D01*
X54902000Y-23282533D01*
X54902000Y-22921000D01*
X54352000Y-22921000D01*
X54352000Y-24080534D01*
X54332315Y-24147573D01*
X54315681Y-24168215D01*
X53494181Y-24989715D01*
X53432858Y-25023200D01*
X53363166Y-25018216D01*
X53307233Y-24976344D01*
X53282816Y-24910880D01*
X53282500Y-24902034D01*
X53282500Y-24045102D01*
X53302185Y-23978063D01*
X53354989Y-23932308D01*
X53424147Y-23922364D01*
X53487703Y-23951389D01*
X53494181Y-23957421D01*
X53550438Y-24013678D01*
X53550447Y-24013685D01*
X53691801Y-24097281D01*
X53849514Y-24143100D01*
X53849511Y-24143100D01*
X53851998Y-24143295D01*
X53852000Y-24143295D01*
X53852000Y-21198703D01*
X54352000Y-21198703D01*
X54352000Y-22421000D01*
X54902000Y-22421000D01*
X54902000Y-21780356D01*
X54899100Y-21743510D01*
X54899099Y-21743504D01*
X54853283Y-21585806D01*
X54853282Y-21585803D01*
X54769685Y-21444447D01*
X54769678Y-21444438D01*
X54653561Y-21328321D01*
X54653552Y-21328314D01*
X54512196Y-21244717D01*
X54512193Y-21244716D01*
X54354494Y-21198900D01*
X54354497Y-21198900D01*
X54352000Y-21198703D01*
X53852000Y-21198703D01*
X53849503Y-21198900D01*
X53691806Y-21244716D01*
X53691803Y-21244717D01*
X53550447Y-21328314D01*
X53550438Y-21328321D01*
X53434321Y-21444438D01*
X53434317Y-21444444D01*
X53382580Y-21531926D01*
X53331510Y-21579609D01*
X53262768Y-21592112D01*
X53198179Y-21565466D01*
X53188663Y-21556930D01*
X53188486Y-21556804D01*
X53188484Y-21556803D01*
X53188483Y-21556802D01*
X53083393Y-21505427D01*
X53083391Y-21505426D01*
X53015261Y-21495500D01*
X53015260Y-21495500D01*
X52648740Y-21495500D01*
X52648739Y-21495500D01*
X52580608Y-21505426D01*
X52475514Y-21556803D01*
X52392803Y-21639514D01*
X52341426Y-21744608D01*
X52331500Y-21812739D01*
X52331500Y-23529260D01*
X52341426Y-23597391D01*
X52368901Y-23653592D01*
X52381500Y-23708052D01*
X52381500Y-26280573D01*
X52379275Y-26340009D01*
X52380316Y-26349243D01*
X52379485Y-26349336D01*
X52381500Y-26364635D01*
X52381500Y-26583947D01*
X52368901Y-26638406D01*
X52341428Y-26694604D01*
X52341425Y-26694611D01*
X52331500Y-26762739D01*
X52331500Y-28479260D01*
X52062500Y-28479260D01*
X52062500Y-26762740D01*
X52052573Y-26694607D01*
X52001198Y-26589517D01*
X52001196Y-26589515D01*
X52001196Y-26589514D01*
X51918485Y-26506803D01*
X51813391Y-26455426D01*
X51745261Y-26445500D01*
X51745260Y-26445500D01*
X51378740Y-26445500D01*
X51378739Y-26445500D01*
X51310608Y-26455426D01*
X51205514Y-26506803D01*
X51122803Y-26589514D01*
X51071426Y-26694608D01*
X51061500Y-26762739D01*
X51061500Y-28182811D01*
X51041815Y-28249850D01*
X51025181Y-28270492D01*
X51004181Y-28291492D01*
X50942858Y-28324977D01*
X50873166Y-28319993D01*
X50817233Y-28278121D01*
X50792816Y-28212657D01*
X50792500Y-28203811D01*
X50792500Y-26762739D01*
X50782574Y-26694611D01*
X50782573Y-26694608D01*
X50782573Y-26694607D01*
X50759365Y-26647133D01*
X50755099Y-26638406D01*
X50742500Y-26583947D01*
X50742500Y-26359426D01*
X50744724Y-26299992D01*
X50743684Y-26290761D01*
X50744513Y-26290667D01*
X50742500Y-26275366D01*
X50742500Y-23708052D01*
X50755099Y-23653592D01*
X50772804Y-23617375D01*
X50782573Y-23597393D01*
X50792500Y-23529260D01*
X50792500Y-21812740D01*
X50792500Y-21812739D01*
X50782574Y-21744611D01*
X50782573Y-21744608D01*
X50782573Y-21744607D01*
X50763577Y-21705749D01*
X50755099Y-21688406D01*
X50742500Y-21633947D01*
X50742500Y-19720284D01*
X50762185Y-19653245D01*
X50814989Y-19607490D01*
X50884147Y-19597546D01*
X50913946Y-19605721D01*
X50984738Y-19635044D01*
X51128687Y-19653995D01*
X51192581Y-19682260D01*
X51231053Y-19740584D01*
X51236500Y-19776933D01*
X51236500Y-21474456D01*
X51216815Y-21541495D01*
X51200181Y-21562137D01*
X51122803Y-21639514D01*
X51071426Y-21744608D01*
X51061500Y-21812739D01*
X51061500Y-23529260D01*
X51071426Y-23597391D01*
X51122803Y-23702485D01*
X51205514Y-23785196D01*
X51205515Y-23785196D01*
X51205517Y-23785198D01*
X51310607Y-23836573D01*
X51333037Y-23839841D01*
X51378739Y-23846500D01*
X51378740Y-23846500D01*
X51745261Y-23846500D01*
X51767971Y-23843191D01*
X51813393Y-23836573D01*
X51918483Y-23785198D01*
X52001198Y-23702483D01*
X52052573Y-23597393D01*
X52062500Y-23529260D01*
X52062500Y-21812740D01*
X52052573Y-21744607D01*
X52001198Y-21639517D01*
X52001196Y-21639515D01*
X52001196Y-21639514D01*
X51923819Y-21562137D01*
X51890334Y-21500814D01*
X51887500Y-21474456D01*
X51887500Y-19487420D01*
X51887736Y-19482013D01*
X51887829Y-19480956D01*
X51891264Y-19441693D01*
X51891263Y-19441692D01*
X51891264Y-19441691D01*
X51890800Y-19436394D01*
X51887500Y-19411320D01*
X51887500Y-19373608D01*
X51887500Y-19373606D01*
X51848240Y-19265740D01*
X51848239Y-19265739D01*
X51848239Y-19265738D01*
X51771408Y-19174175D01*
X51743395Y-19110167D01*
X51743457Y-19078286D01*
X51747182Y-19050000D01*
X51726544Y-18893238D01*
X51666036Y-18747159D01*
X51602213Y-18663984D01*
X51577021Y-18598818D01*
X51591059Y-18530373D01*
X51639873Y-18480383D01*
X51700591Y-18464500D01*
X52827750Y-18464500D01*
X52827751Y-18464499D01*
X52842568Y-18461552D01*
X52886229Y-18452868D01*
X52886229Y-18452867D01*
X52886231Y-18452867D01*
X52952552Y-18408552D01*
X52996867Y-18342231D01*
X52996867Y-18342229D01*
X52996868Y-18342229D01*
X53008499Y-18283752D01*
X53008500Y-18283750D01*
X53008500Y-16764004D01*
X55063732Y-16764004D01*
X55082777Y-17018154D01*
X55129059Y-17220930D01*
X55139492Y-17266637D01*
X55193126Y-17403294D01*
X55232608Y-17503890D01*
X55245373Y-17526000D01*
X55360041Y-17724612D01*
X55518950Y-17923877D01*
X55705783Y-18097232D01*
X55916366Y-18240805D01*
X55916371Y-18240807D01*
X55916372Y-18240808D01*
X55916373Y-18240809D01*
X56022119Y-18291733D01*
X56145992Y-18351387D01*
X56145993Y-18351387D01*
X56145996Y-18351389D01*
X56389542Y-18426513D01*
X56641565Y-18464500D01*
X56896435Y-18464500D01*
X57148458Y-18426513D01*
X57392004Y-18351389D01*
X57621634Y-18240805D01*
X57832217Y-18097232D01*
X58019050Y-17923877D01*
X58177959Y-17724612D01*
X58305393Y-17503888D01*
X58398508Y-17266637D01*
X58455222Y-17018157D01*
X58474268Y-16764000D01*
X58455222Y-16509843D01*
X58398508Y-16261363D01*
X58305393Y-16024112D01*
X58177959Y-15803388D01*
X58019050Y-15604123D01*
X57832217Y-15430768D01*
X57621634Y-15287195D01*
X57621630Y-15287193D01*
X57621627Y-15287191D01*
X57621626Y-15287190D01*
X57392006Y-15176612D01*
X57392008Y-15176612D01*
X57148466Y-15101489D01*
X57148462Y-15101488D01*
X57148458Y-15101487D01*
X57027231Y-15083214D01*
X56896440Y-15063500D01*
X56896435Y-15063500D01*
X56641565Y-15063500D01*
X56641559Y-15063500D01*
X56484609Y-15087157D01*
X56389542Y-15101487D01*
X56389539Y-15101488D01*
X56389533Y-15101489D01*
X56145992Y-15176612D01*
X55916373Y-15287190D01*
X55916372Y-15287191D01*
X55705782Y-15430768D01*
X55518952Y-15604121D01*
X55518950Y-15604123D01*
X55360041Y-15803388D01*
X55232608Y-16024109D01*
X55139492Y-16261362D01*
X55139490Y-16261369D01*
X55082777Y-16509845D01*
X55063732Y-16763995D01*
X55063732Y-16764004D01*
X53008500Y-16764004D01*
X53008500Y-15244249D01*
X53008499Y-15244247D01*
X52996868Y-15185770D01*
X52996867Y-15185769D01*
X52952552Y-15119447D01*
X52886230Y-15075132D01*
X52886229Y-15075131D01*
X52827752Y-15063500D01*
X52827748Y-15063500D01*
X49788252Y-15063500D01*
X49788247Y-15063500D01*
X49729770Y-15075131D01*
X49729769Y-15075132D01*
X49663447Y-15119447D01*
X49619132Y-15185769D01*
X49619131Y-15185770D01*
X49607500Y-15244247D01*
X49607500Y-18283752D01*
X49619131Y-18342229D01*
X49619132Y-18342230D01*
X49663447Y-18408552D01*
X49690325Y-18426511D01*
X49729769Y-18452867D01*
X49741690Y-18455238D01*
X49803602Y-18487623D01*
X49838176Y-18548338D01*
X49841500Y-18576856D01*
X49841500Y-21633947D01*
X49828901Y-21688406D01*
X49801428Y-21744604D01*
X49801425Y-21744611D01*
X49791500Y-21812739D01*
X49791500Y-23529260D01*
X49801426Y-23597391D01*
X49828901Y-23653592D01*
X49841500Y-23708052D01*
X49841500Y-26113035D01*
X49821815Y-26180074D01*
X49805181Y-26200716D01*
X49522095Y-26483801D01*
X49460772Y-26517286D01*
X49391080Y-26512302D01*
X49379954Y-26507521D01*
X49273391Y-26455426D01*
X49205261Y-26445500D01*
X49205260Y-26445500D01*
X48838740Y-26445500D01*
X48838739Y-26445500D01*
X48770608Y-26455426D01*
X48665514Y-26506803D01*
X48582803Y-26589514D01*
X48531426Y-26694608D01*
X48521500Y-26762739D01*
X48521500Y-28479260D01*
X48531426Y-28547391D01*
X48582803Y-28652485D01*
X48603137Y-28672819D01*
X48636622Y-28734142D01*
X48631638Y-28803834D01*
X48589766Y-28859767D01*
X48524302Y-28884184D01*
X48515456Y-28884500D01*
X48258544Y-28884500D01*
X48191505Y-28864815D01*
X48145750Y-28812011D01*
X48135806Y-28742853D01*
X48164831Y-28679297D01*
X48170863Y-28672819D01*
X48191196Y-28652485D01*
X48191198Y-28652483D01*
X48242573Y-28547393D01*
X48252500Y-28479260D01*
X48252500Y-26762740D01*
X48242573Y-26694607D01*
X48191198Y-26589517D01*
X48191196Y-26589515D01*
X48191196Y-26589514D01*
X48113819Y-26512137D01*
X48080334Y-26450814D01*
X48077500Y-26424456D01*
X48077500Y-26305909D01*
X48077736Y-26300502D01*
X48078589Y-26290761D01*
X48081263Y-26260193D01*
X48081262Y-26260192D01*
X48081263Y-26260191D01*
X48070785Y-26221090D01*
X48069618Y-26215830D01*
X48062588Y-26175955D01*
X48062587Y-26175953D01*
X48060760Y-26170933D01*
X48053820Y-26154176D01*
X48051554Y-26149319D01*
X48051554Y-26149316D01*
X48028337Y-26116159D01*
X48025435Y-26111605D01*
X48005194Y-26076545D01*
X48005193Y-26076544D01*
X48005191Y-26076540D01*
X47998220Y-26068232D01*
X48000977Y-26065918D01*
X47972949Y-26023797D01*
X47968415Y-25970787D01*
X47976682Y-25908000D01*
X47956044Y-25751238D01*
X47895536Y-25605159D01*
X47799282Y-25479718D01*
X47673841Y-25383464D01*
X47656077Y-25376106D01*
X47527762Y-25322956D01*
X47527760Y-25322955D01*
X47371001Y-25302318D01*
X47370999Y-25302318D01*
X47214239Y-25322955D01*
X47214234Y-25322957D01*
X47103952Y-25368637D01*
X47034483Y-25376106D01*
X46972004Y-25344830D01*
X46936352Y-25284741D01*
X46932500Y-25254076D01*
X46932500Y-23708052D01*
X46945099Y-23653592D01*
X46962804Y-23617375D01*
X46972573Y-23597393D01*
X46982500Y-23529260D01*
X46982500Y-21883965D01*
X47002185Y-21816926D01*
X47018814Y-21796288D01*
X47039821Y-21775282D01*
X47101142Y-21741799D01*
X47170834Y-21746783D01*
X47226767Y-21788655D01*
X47251184Y-21854119D01*
X47251500Y-21862965D01*
X47251500Y-23529260D01*
X47261426Y-23597391D01*
X47312803Y-23702485D01*
X47395514Y-23785196D01*
X47395515Y-23785196D01*
X47395517Y-23785198D01*
X47500607Y-23836573D01*
X47557237Y-23844824D01*
X47620734Y-23873966D01*
X47658399Y-23932814D01*
X47658269Y-24002684D01*
X47637734Y-24043012D01*
X47608464Y-24081158D01*
X47547956Y-24227237D01*
X47547955Y-24227239D01*
X47527318Y-24383998D01*
X47527318Y-24384001D01*
X47547955Y-24540760D01*
X47547956Y-24540762D01*
X47581624Y-24622045D01*
X47608464Y-24686841D01*
X47704718Y-24812282D01*
X47830159Y-24908536D01*
X47976238Y-24969044D01*
X48054619Y-24979363D01*
X48132999Y-24989682D01*
X48133000Y-24989682D01*
X48133001Y-24989682D01*
X48185254Y-24982802D01*
X48289762Y-24969044D01*
X48435841Y-24908536D01*
X48561282Y-24812282D01*
X48657536Y-24686841D01*
X48718044Y-24540762D01*
X48732332Y-24432228D01*
X48760598Y-24368333D01*
X48767578Y-24360745D01*
X49240204Y-23888119D01*
X49244165Y-23884489D01*
X49275194Y-23858454D01*
X49275196Y-23858451D01*
X49282169Y-23850142D01*
X49283364Y-23851145D01*
X49325129Y-23811311D01*
X49327458Y-23810141D01*
X49378483Y-23785198D01*
X49461198Y-23702483D01*
X49512573Y-23597393D01*
X49522500Y-23529260D01*
X49522500Y-21812740D01*
X49512573Y-21744607D01*
X49461198Y-21639517D01*
X49461196Y-21639515D01*
X49461196Y-21639514D01*
X49378485Y-21556803D01*
X49273391Y-21505426D01*
X49205261Y-21495500D01*
X49205260Y-21495500D01*
X48838740Y-21495500D01*
X48838739Y-21495500D01*
X48770607Y-21505426D01*
X48770606Y-21505426D01*
X48759873Y-21510674D01*
X48691000Y-21522432D01*
X48626703Y-21495088D01*
X48587396Y-21437324D01*
X48585560Y-21367478D01*
X48617733Y-21311592D01*
X48730622Y-21198703D01*
X49367210Y-20562115D01*
X49371172Y-20558484D01*
X49402194Y-20532455D01*
X49422444Y-20497379D01*
X49425328Y-20492852D01*
X49448554Y-20459684D01*
X49448554Y-20459681D01*
X49450819Y-20454824D01*
X49457747Y-20438099D01*
X49459587Y-20433046D01*
X49459588Y-20433045D01*
X49466621Y-20393150D01*
X49467777Y-20387937D01*
X49478263Y-20348807D01*
X49474735Y-20308489D01*
X49474500Y-20303086D01*
X49474500Y-19828920D01*
X49474736Y-19823513D01*
X49478264Y-19783193D01*
X49467782Y-19744076D01*
X49466616Y-19738818D01*
X49459588Y-19698955D01*
X49459586Y-19698952D01*
X49459586Y-19698950D01*
X49457760Y-19693933D01*
X49450820Y-19677176D01*
X49448554Y-19672319D01*
X49448554Y-19672316D01*
X49425339Y-19639162D01*
X49422433Y-19634599D01*
X49402196Y-19599548D01*
X49402195Y-19599547D01*
X49402194Y-19599545D01*
X49371177Y-19573518D01*
X49367193Y-19569867D01*
X49063064Y-19265738D01*
X48629119Y-18831793D01*
X48625474Y-18827814D01*
X48599456Y-18796807D01*
X48599455Y-18796806D01*
X48588058Y-18790226D01*
X48564392Y-18776561D01*
X48559831Y-18773655D01*
X48546687Y-18764452D01*
X48526684Y-18750446D01*
X48526681Y-18750445D01*
X48521861Y-18748197D01*
X48505055Y-18741235D01*
X48500043Y-18739411D01*
X48460190Y-18732383D01*
X48454910Y-18731212D01*
X48415808Y-18720735D01*
X48380892Y-18723790D01*
X48375481Y-18724264D01*
X48370078Y-18724500D01*
X47296637Y-18724500D01*
X47229598Y-18704815D01*
X47183843Y-18652011D01*
X47173899Y-18582853D01*
X47202924Y-18519297D01*
X47237210Y-18491668D01*
X47312047Y-18450803D01*
X47454561Y-18344116D01*
X47454562Y-18344115D01*
X46561748Y-17451300D01*
X46571409Y-17447784D01*
X46719844Y-17350157D01*
X46841764Y-17220930D01*
X46913768Y-17096215D01*
X47808115Y-17990562D01*
X47808116Y-17990561D01*
X47914803Y-17848047D01*
X48051908Y-17596958D01*
X48151890Y-17328895D01*
X48212699Y-17049362D01*
X48233109Y-16764001D01*
X48233109Y-16763998D01*
X48212699Y-16478637D01*
X48151890Y-16199104D01*
X48051908Y-15931041D01*
X47914808Y-15679961D01*
X47914807Y-15679960D01*
X47808115Y-15537436D01*
X46912803Y-16432747D01*
X46890660Y-16381413D01*
X46784567Y-16238906D01*
X46648470Y-16124706D01*
X46558782Y-16079663D01*
X47454562Y-15183883D01*
X47454561Y-15183882D01*
X47312046Y-15077196D01*
X47312038Y-15077191D01*
X47060957Y-14940091D01*
X47060958Y-14940091D01*
X46792895Y-14840109D01*
X46513362Y-14779300D01*
X46228001Y-14758891D01*
X46227999Y-14758891D01*
X45942637Y-14779300D01*
X45663104Y-14840109D01*
X45395041Y-14940091D01*
X45143961Y-15077191D01*
X45143953Y-15077196D01*
X45001437Y-15183882D01*
X45001436Y-15183883D01*
X45894252Y-16076699D01*
X45884591Y-16080216D01*
X45736156Y-16177843D01*
X45614236Y-16307070D01*
X45542231Y-16431784D01*
X44647883Y-15537436D01*
X44647882Y-15537437D01*
X44541196Y-15679953D01*
X44541191Y-15679961D01*
X44404091Y-15931041D01*
X44304109Y-16199104D01*
X44243300Y-16478637D01*
X44222891Y-16763998D01*
X44222891Y-16764001D01*
X44243300Y-17049362D01*
X44304109Y-17328895D01*
X44404091Y-17596958D01*
X44541191Y-17848038D01*
X44541196Y-17848046D01*
X44647882Y-17990561D01*
X44647883Y-17990562D01*
X45543195Y-17095250D01*
X45565340Y-17146587D01*
X45671433Y-17289094D01*
X45807530Y-17403294D01*
X45897216Y-17448335D01*
X45001436Y-18344115D01*
X45143960Y-18450807D01*
X45143961Y-18450808D01*
X45218790Y-18491668D01*
X45268195Y-18541073D01*
X45283047Y-18609346D01*
X45258630Y-18674811D01*
X45202696Y-18716682D01*
X45159363Y-18724500D01*
X43366188Y-18724500D01*
X43299149Y-18704815D01*
X43278507Y-18688181D01*
X42998873Y-18408547D01*
X42965388Y-18347224D01*
X42967894Y-18284870D01*
X42983780Y-18232500D01*
X43023024Y-18103132D01*
X43042341Y-17907000D01*
X43023024Y-17710868D01*
X42965814Y-17522273D01*
X42965811Y-17522269D01*
X42965811Y-17522266D01*
X42872913Y-17348467D01*
X42872909Y-17348460D01*
X42747883Y-17196116D01*
X42595539Y-17071090D01*
X42595532Y-17071086D01*
X42421733Y-16978188D01*
X42421727Y-16978186D01*
X42233132Y-16920976D01*
X42233129Y-16920975D01*
X42037000Y-16901659D01*
X41840870Y-16920975D01*
X41652266Y-16978188D01*
X41478467Y-17071086D01*
X41478460Y-17071090D01*
X41326116Y-17196116D01*
X41201090Y-17348460D01*
X41201086Y-17348467D01*
X41108188Y-17522266D01*
X41050975Y-17710870D01*
X41031659Y-17907000D01*
X41050975Y-18103129D01*
X41108188Y-18291733D01*
X41201086Y-18465532D01*
X41201090Y-18465539D01*
X41326116Y-18617883D01*
X41478460Y-18742909D01*
X41478467Y-18742913D01*
X41652266Y-18835811D01*
X41652269Y-18835811D01*
X41652273Y-18835814D01*
X41840868Y-18893024D01*
X42037000Y-18912341D01*
X42233132Y-18893024D01*
X42414870Y-18837893D01*
X42484737Y-18837270D01*
X42538547Y-18868873D01*
X42937863Y-19268189D01*
X42941518Y-19272178D01*
X42967541Y-19303190D01*
X42967543Y-19303191D01*
X42967545Y-19303194D01*
X42967547Y-19303195D01*
X42967548Y-19303196D01*
X43002599Y-19323433D01*
X43007162Y-19326339D01*
X43040316Y-19349554D01*
X43040319Y-19349554D01*
X43045176Y-19351820D01*
X43061933Y-19358760D01*
X43066953Y-19360587D01*
X43066955Y-19360588D01*
X43106830Y-19367618D01*
X43112087Y-19368784D01*
X43151193Y-19379263D01*
X43191510Y-19375735D01*
X43196912Y-19375500D01*
X47685921Y-19375500D01*
X47752960Y-19395185D01*
X47798715Y-19447989D01*
X47808659Y-19517147D01*
X47779634Y-19580703D01*
X47761411Y-19597872D01*
X47713549Y-19634599D01*
X47709484Y-19637718D01*
X47613229Y-19763160D01*
X47552722Y-19909237D01*
X47552722Y-19909239D01*
X47546248Y-19958411D01*
X47517981Y-20022308D01*
X47510990Y-20029906D01*
X46183804Y-21357093D01*
X46178617Y-21361728D01*
X46148033Y-21386118D01*
X46148029Y-21386123D01*
X46114518Y-21435273D01*
X46092325Y-21465343D01*
X46036677Y-21507593D01*
X45967021Y-21513050D01*
X45905472Y-21479982D01*
X45885821Y-21454825D01*
X45879680Y-21444441D01*
X45879678Y-21444438D01*
X45763561Y-21328321D01*
X45763552Y-21328314D01*
X45622196Y-21244717D01*
X45622193Y-21244716D01*
X45464494Y-21198900D01*
X45464497Y-21198900D01*
X45462000Y-21198703D01*
X45462000Y-24143295D01*
X45462001Y-24143295D01*
X45464486Y-24143100D01*
X45622198Y-24097281D01*
X45763552Y-24013685D01*
X45763561Y-24013678D01*
X45819819Y-23957421D01*
X45881142Y-23923936D01*
X45950834Y-23928920D01*
X46006767Y-23970792D01*
X46031184Y-24036256D01*
X46031500Y-24045102D01*
X46031500Y-26246898D01*
X46011815Y-26313937D01*
X45959011Y-26359692D01*
X45889853Y-26369636D01*
X45826297Y-26340611D01*
X45819819Y-26334579D01*
X45763561Y-26278321D01*
X45763552Y-26278314D01*
X45622196Y-26194717D01*
X45622193Y-26194716D01*
X45464494Y-26148900D01*
X45464497Y-26148900D01*
X45462000Y-26148703D01*
X45462000Y-27747000D01*
X45442315Y-27814039D01*
X45389511Y-27859794D01*
X45338000Y-27871000D01*
X44412000Y-27871000D01*
X44412000Y-28511644D01*
X44414899Y-28548489D01*
X44414900Y-28548495D01*
X44460717Y-28706197D01*
X44462905Y-28711253D01*
X44471465Y-28780596D01*
X44441175Y-28843559D01*
X44381654Y-28880152D01*
X44349104Y-28884500D01*
X41089500Y-28884500D01*
X41022461Y-28864815D01*
X40976706Y-28812011D01*
X40965500Y-28760500D01*
X40965500Y-28171816D01*
X40985185Y-28104777D01*
X41037989Y-28059022D01*
X41107147Y-28049078D01*
X41170703Y-28078103D01*
X41198861Y-28113367D01*
X41201091Y-28117540D01*
X41326116Y-28269883D01*
X41478460Y-28394909D01*
X41478467Y-28394913D01*
X41652266Y-28487811D01*
X41652269Y-28487811D01*
X41652273Y-28487814D01*
X41840868Y-28545024D01*
X42037000Y-28564341D01*
X42233132Y-28545024D01*
X42421727Y-28487814D01*
X42437731Y-28479260D01*
X42595532Y-28394913D01*
X42595538Y-28394910D01*
X42747883Y-28269883D01*
X42872910Y-28117538D01*
X42965814Y-27943727D01*
X43023024Y-27755132D01*
X43042341Y-27559000D01*
X43023825Y-27371000D01*
X44412000Y-27371000D01*
X44962000Y-27371000D01*
X44962000Y-26148703D01*
X44959503Y-26148900D01*
X44801806Y-26194716D01*
X44801803Y-26194717D01*
X44660447Y-26278314D01*
X44660438Y-26278321D01*
X44544321Y-26394438D01*
X44544314Y-26394447D01*
X44460717Y-26535803D01*
X44460716Y-26535806D01*
X44414900Y-26693504D01*
X44414899Y-26693510D01*
X44412000Y-26730356D01*
X44412000Y-27371000D01*
X43023825Y-27371000D01*
X43023024Y-27362868D01*
X42965814Y-27174273D01*
X42965811Y-27174269D01*
X42965811Y-27174266D01*
X42872913Y-27000467D01*
X42872909Y-27000460D01*
X42747883Y-26848116D01*
X42595539Y-26723090D01*
X42595532Y-26723086D01*
X42421733Y-26630188D01*
X42421727Y-26630186D01*
X42233132Y-26572976D01*
X42233129Y-26572975D01*
X42037000Y-26553659D01*
X41840870Y-26572975D01*
X41652266Y-26630188D01*
X41478467Y-26723086D01*
X41478460Y-26723090D01*
X41326116Y-26848116D01*
X41201090Y-27000460D01*
X41201085Y-27000467D01*
X41198858Y-27004636D01*
X41149896Y-27054481D01*
X41081758Y-27069941D01*
X41016078Y-27046109D01*
X40973710Y-26990552D01*
X40965500Y-26946183D01*
X40965500Y-24996816D01*
X40985185Y-24929777D01*
X41037989Y-24884022D01*
X41107147Y-24874078D01*
X41170703Y-24903103D01*
X41198861Y-24938367D01*
X41201091Y-24942540D01*
X41326116Y-25094883D01*
X41478460Y-25219909D01*
X41478467Y-25219913D01*
X41652266Y-25312811D01*
X41652269Y-25312811D01*
X41652273Y-25312814D01*
X41840868Y-25370024D01*
X42037000Y-25389341D01*
X42233132Y-25370024D01*
X42421727Y-25312814D01*
X42595538Y-25219910D01*
X42747883Y-25094883D01*
X42872910Y-24942538D01*
X42942534Y-24812281D01*
X42965811Y-24768733D01*
X42965811Y-24768732D01*
X42965814Y-24768727D01*
X43023024Y-24580132D01*
X43042341Y-24384000D01*
X43023024Y-24187868D01*
X42965814Y-23999273D01*
X42965811Y-23999269D01*
X42965811Y-23999266D01*
X42872913Y-23825467D01*
X42872909Y-23825460D01*
X42747883Y-23673116D01*
X42595539Y-23548090D01*
X42595532Y-23548086D01*
X42421733Y-23455188D01*
X42421727Y-23455186D01*
X42233132Y-23397976D01*
X42233129Y-23397975D01*
X42037000Y-23378659D01*
X41840870Y-23397975D01*
X41652266Y-23455188D01*
X41478467Y-23548086D01*
X41478460Y-23548090D01*
X41326116Y-23673116D01*
X41201090Y-23825460D01*
X41201085Y-23825467D01*
X41198858Y-23829636D01*
X41149896Y-23879481D01*
X41081758Y-23894941D01*
X41016078Y-23871109D01*
X40973710Y-23815552D01*
X40965500Y-23771183D01*
X40965500Y-22921000D01*
X44412000Y-22921000D01*
X44412000Y-23561644D01*
X44414899Y-23598489D01*
X44414900Y-23598495D01*
X44460716Y-23756193D01*
X44460717Y-23756196D01*
X44544314Y-23897552D01*
X44544321Y-23897561D01*
X44660438Y-24013678D01*
X44660447Y-24013685D01*
X44801801Y-24097281D01*
X44959514Y-24143100D01*
X44959511Y-24143100D01*
X44961998Y-24143295D01*
X44962000Y-24143295D01*
X44962000Y-22921000D01*
X44412000Y-22921000D01*
X40965500Y-22921000D01*
X40965500Y-22792187D01*
X40985185Y-22725148D01*
X41001815Y-22704510D01*
X41285324Y-22421000D01*
X44412000Y-22421000D01*
X44962000Y-22421000D01*
X44962000Y-21198703D01*
X44959503Y-21198900D01*
X44801806Y-21244716D01*
X44801803Y-21244717D01*
X44660447Y-21328314D01*
X44660438Y-21328321D01*
X44544321Y-21444438D01*
X44544314Y-21444447D01*
X44460717Y-21585803D01*
X44460716Y-21585806D01*
X44414900Y-21743504D01*
X44414899Y-21743510D01*
X44412000Y-21780356D01*
X44412000Y-22421000D01*
X41285324Y-22421000D01*
X41535452Y-22170872D01*
X41596775Y-22137388D01*
X41659126Y-22139892D01*
X41840868Y-22195024D01*
X42037000Y-22214341D01*
X42233132Y-22195024D01*
X42421727Y-22137814D01*
X42595538Y-22044910D01*
X42747883Y-21919883D01*
X42872910Y-21767538D01*
X42965814Y-21593727D01*
X43023024Y-21405132D01*
X43042341Y-21209000D01*
X43023024Y-21012868D01*
X42965814Y-20824273D01*
X42965811Y-20824269D01*
X42965811Y-20824266D01*
X42872913Y-20650467D01*
X42872909Y-20650460D01*
X42747883Y-20498116D01*
X42595539Y-20373090D01*
X42595532Y-20373086D01*
X42421733Y-20280188D01*
X42421727Y-20280186D01*
X42233132Y-20222976D01*
X42233129Y-20222975D01*
X42037000Y-20203659D01*
X41840870Y-20222975D01*
X41652266Y-20280188D01*
X41478467Y-20373086D01*
X41478460Y-20373090D01*
X41326116Y-20498116D01*
X41201090Y-20650460D01*
X41201086Y-20650467D01*
X41108188Y-20824266D01*
X41050975Y-21012870D01*
X41031659Y-21209000D01*
X41050975Y-21405130D01*
X41092390Y-21541655D01*
X41101200Y-21570699D01*
X41106106Y-21586870D01*
X41106729Y-21656736D01*
X41075126Y-21710546D01*
X40421803Y-22363870D01*
X40417814Y-22367525D01*
X40386805Y-22393545D01*
X40366562Y-22428606D01*
X40363656Y-22433166D01*
X40340446Y-22466313D01*
X40338206Y-22471117D01*
X40331229Y-22487961D01*
X40329410Y-22492959D01*
X40322383Y-22532811D01*
X40321212Y-22538091D01*
X40310735Y-22577191D01*
X40314264Y-22617513D01*
X40314500Y-22622920D01*
X40314500Y-28939078D01*
X40314264Y-28944485D01*
X40310735Y-28984808D01*
X40321212Y-29023910D01*
X40322383Y-29029190D01*
X40329411Y-29069043D01*
X40331235Y-29074055D01*
X40338197Y-29090861D01*
X40340445Y-29095681D01*
X40340446Y-29095684D01*
X40354452Y-29115687D01*
X40363655Y-29128831D01*
X40366561Y-29133392D01*
X40386806Y-29168455D01*
X40417815Y-29194475D01*
X40421805Y-29198131D01*
X40602993Y-29379319D01*
X40636478Y-29440642D01*
X40631494Y-29510334D01*
X40589622Y-29566267D01*
X40524158Y-29590684D01*
X40515312Y-29591000D01*
X24000000Y-29591000D01*
X23932961Y-29571315D01*
X23887206Y-29518511D01*
X23876000Y-29467000D01*
X23876000Y-25396000D01*
X25339364Y-25396000D01*
X25396567Y-25609486D01*
X25396570Y-25609492D01*
X25496399Y-25823578D01*
X25631894Y-26017082D01*
X25798917Y-26184105D01*
X25992421Y-26319600D01*
X26162948Y-26399118D01*
X26215387Y-26445290D01*
X26234539Y-26512484D01*
X26214323Y-26579365D01*
X26161158Y-26624700D01*
X26110543Y-26635500D01*
X25800247Y-26635500D01*
X25741770Y-26647131D01*
X25741769Y-26647132D01*
X25675447Y-26691447D01*
X25631132Y-26757769D01*
X25631131Y-26757770D01*
X25619500Y-26816247D01*
X25619500Y-28555752D01*
X25631131Y-28614229D01*
X25631132Y-28614230D01*
X25675447Y-28680552D01*
X25741769Y-28724867D01*
X25741770Y-28724868D01*
X25800247Y-28736499D01*
X25800250Y-28736500D01*
X25800252Y-28736500D01*
X27539750Y-28736500D01*
X27539751Y-28736499D01*
X27554568Y-28733552D01*
X27598229Y-28724868D01*
X27598229Y-28724867D01*
X27598231Y-28724867D01*
X27664552Y-28680552D01*
X27708867Y-28614231D01*
X27708867Y-28614229D01*
X27708868Y-28614229D01*
X27720499Y-28555752D01*
X27720500Y-28555750D01*
X27720500Y-28135500D01*
X27740185Y-28068461D01*
X27792989Y-28022706D01*
X27844500Y-28011500D01*
X30910089Y-28011500D01*
X30977128Y-28031185D01*
X31019445Y-28077044D01*
X31038861Y-28113367D01*
X31041092Y-28117541D01*
X31166116Y-28269883D01*
X31318460Y-28394909D01*
X31318467Y-28394913D01*
X31492266Y-28487811D01*
X31492269Y-28487811D01*
X31492273Y-28487814D01*
X31680868Y-28545024D01*
X31877000Y-28564341D01*
X32073132Y-28545024D01*
X32261727Y-28487814D01*
X32277731Y-28479260D01*
X32435532Y-28394913D01*
X32435538Y-28394910D01*
X32587883Y-28269883D01*
X32712910Y-28117538D01*
X32805814Y-27943727D01*
X32863024Y-27755132D01*
X32882341Y-27559000D01*
X32863024Y-27362868D01*
X32805814Y-27174273D01*
X32805811Y-27174269D01*
X32805811Y-27174266D01*
X32712913Y-27000467D01*
X32712909Y-27000460D01*
X32587883Y-26848116D01*
X32435539Y-26723090D01*
X32435532Y-26723086D01*
X32261733Y-26630188D01*
X32261727Y-26630186D01*
X32073132Y-26572976D01*
X32073129Y-26572975D01*
X31877000Y-26553659D01*
X31680870Y-26572975D01*
X31492266Y-26630188D01*
X31318467Y-26723086D01*
X31318460Y-26723090D01*
X31166116Y-26848116D01*
X31041090Y-27000460D01*
X31041086Y-27000467D01*
X30948187Y-27174268D01*
X30935153Y-27217236D01*
X30918389Y-27272496D01*
X30880093Y-27330934D01*
X30816281Y-27359390D01*
X30799730Y-27360500D01*
X27844500Y-27360500D01*
X27777461Y-27340815D01*
X27731706Y-27288011D01*
X27720500Y-27236500D01*
X27720500Y-26816249D01*
X27720499Y-26816247D01*
X27708868Y-26757770D01*
X27708867Y-26757769D01*
X27664552Y-26691447D01*
X27598230Y-26647132D01*
X27598229Y-26647131D01*
X27539752Y-26635500D01*
X27539748Y-26635500D01*
X27229457Y-26635500D01*
X27162418Y-26615815D01*
X27116663Y-26563011D01*
X27106719Y-26493853D01*
X27135744Y-26430297D01*
X27177052Y-26399118D01*
X27347578Y-26319600D01*
X27541082Y-26184105D01*
X27708105Y-26017082D01*
X27843600Y-25823578D01*
X27943429Y-25609492D01*
X27943432Y-25609486D01*
X28000636Y-25396000D01*
X27103686Y-25396000D01*
X27129493Y-25355844D01*
X27170000Y-25217889D01*
X27170000Y-25074111D01*
X27129493Y-24936156D01*
X27103686Y-24896000D01*
X28000636Y-24896000D01*
X28000635Y-24895999D01*
X27943432Y-24682513D01*
X27943429Y-24682507D01*
X27843600Y-24468422D01*
X27843599Y-24468420D01*
X27784489Y-24384002D01*
X30572034Y-24384002D01*
X30591858Y-24610599D01*
X30591860Y-24610610D01*
X30650730Y-24830317D01*
X30650734Y-24830326D01*
X30746865Y-25036481D01*
X30746866Y-25036483D01*
X30797973Y-25109471D01*
X30797974Y-25109472D01*
X31479046Y-24428399D01*
X31491835Y-24509148D01*
X31549359Y-24622045D01*
X31638955Y-24711641D01*
X31751852Y-24769165D01*
X31832599Y-24781953D01*
X31151526Y-25463025D01*
X31151526Y-25463026D01*
X31224512Y-25514131D01*
X31224516Y-25514133D01*
X31430673Y-25610265D01*
X31430682Y-25610269D01*
X31650389Y-25669139D01*
X31650400Y-25669141D01*
X31876998Y-25688966D01*
X31877002Y-25688966D01*
X32103599Y-25669141D01*
X32103610Y-25669139D01*
X32323317Y-25610269D01*
X32323331Y-25610264D01*
X32529478Y-25514136D01*
X32602472Y-25463025D01*
X31921401Y-24781953D01*
X32002148Y-24769165D01*
X32115045Y-24711641D01*
X32204641Y-24622045D01*
X32262165Y-24509148D01*
X32274953Y-24428400D01*
X32956025Y-25109472D01*
X33007136Y-25036478D01*
X33103264Y-24830331D01*
X33103269Y-24830317D01*
X33162139Y-24610610D01*
X33162141Y-24610599D01*
X33181966Y-24384002D01*
X33181966Y-24383997D01*
X33162141Y-24157400D01*
X33162139Y-24157389D01*
X33103269Y-23937682D01*
X33103265Y-23937673D01*
X33007133Y-23731516D01*
X33007131Y-23731512D01*
X32956026Y-23658526D01*
X32956025Y-23658526D01*
X32274953Y-24339598D01*
X32262165Y-24258852D01*
X32204641Y-24145955D01*
X32115045Y-24056359D01*
X32002148Y-23998835D01*
X31921400Y-23986046D01*
X32602472Y-23304974D01*
X32602471Y-23304973D01*
X32529483Y-23253866D01*
X32529481Y-23253865D01*
X32323326Y-23157734D01*
X32323317Y-23157730D01*
X32103610Y-23098860D01*
X32103599Y-23098858D01*
X31877002Y-23079034D01*
X31876998Y-23079034D01*
X31650400Y-23098858D01*
X31650389Y-23098860D01*
X31430682Y-23157730D01*
X31430673Y-23157734D01*
X31224513Y-23253868D01*
X31151527Y-23304972D01*
X31151526Y-23304973D01*
X31832600Y-23986046D01*
X31751852Y-23998835D01*
X31638955Y-24056359D01*
X31549359Y-24145955D01*
X31491835Y-24258852D01*
X31479046Y-24339599D01*
X30797973Y-23658526D01*
X30797972Y-23658527D01*
X30746868Y-23731513D01*
X30650734Y-23937673D01*
X30650730Y-23937682D01*
X30591860Y-24157389D01*
X30591858Y-24157400D01*
X30572034Y-24383997D01*
X30572034Y-24384002D01*
X27784489Y-24384002D01*
X27708113Y-24274926D01*
X27708108Y-24274920D01*
X27541082Y-24107894D01*
X27347578Y-23972399D01*
X27133492Y-23872570D01*
X27133486Y-23872567D01*
X27011349Y-23839841D01*
X26951689Y-23803476D01*
X26921160Y-23740629D01*
X26929455Y-23671253D01*
X26973940Y-23617375D01*
X27007444Y-23601407D01*
X27073954Y-23581232D01*
X27256450Y-23483685D01*
X27416410Y-23352410D01*
X27547685Y-23192450D01*
X27645232Y-23009954D01*
X27705300Y-22811934D01*
X27725583Y-22606000D01*
X27705300Y-22400066D01*
X27645232Y-22202046D01*
X27645230Y-22202043D01*
X27645230Y-22202041D01*
X27644444Y-22200144D01*
X27644328Y-22199068D01*
X27643463Y-22196216D01*
X27644003Y-22196051D01*
X27636971Y-22130675D01*
X27668242Y-22068194D01*
X27671290Y-22065035D01*
X28165508Y-21570819D01*
X28226831Y-21537334D01*
X28253189Y-21534500D01*
X30842205Y-21534500D01*
X30909244Y-21554185D01*
X30951563Y-21600047D01*
X31041085Y-21767532D01*
X31041090Y-21767539D01*
X31166116Y-21919883D01*
X31318460Y-22044909D01*
X31318467Y-22044913D01*
X31492266Y-22137811D01*
X31492269Y-22137811D01*
X31492273Y-22137814D01*
X31680868Y-22195024D01*
X31877000Y-22214341D01*
X32073132Y-22195024D01*
X32261727Y-22137814D01*
X32435538Y-22044910D01*
X32587883Y-21919883D01*
X32712910Y-21767538D01*
X32805814Y-21593727D01*
X32863024Y-21405132D01*
X32882341Y-21209000D01*
X32863024Y-21012868D01*
X32805814Y-20824273D01*
X32805811Y-20824269D01*
X32805811Y-20824266D01*
X32712913Y-20650467D01*
X32712909Y-20650460D01*
X32587883Y-20498116D01*
X32435539Y-20373090D01*
X32435532Y-20373086D01*
X32261733Y-20280188D01*
X32261727Y-20280186D01*
X32073132Y-20222976D01*
X32073129Y-20222975D01*
X31877000Y-20203659D01*
X31680870Y-20222975D01*
X31492266Y-20280188D01*
X31318467Y-20373086D01*
X31318460Y-20373090D01*
X31166116Y-20498116D01*
X31041090Y-20650460D01*
X31041085Y-20650467D01*
X30951563Y-20817953D01*
X30902601Y-20867798D01*
X30842205Y-20883500D01*
X28083911Y-20883500D01*
X28078507Y-20883264D01*
X28073176Y-20882797D01*
X28038192Y-20879736D01*
X27999099Y-20890211D01*
X27993819Y-20891382D01*
X27953954Y-20898412D01*
X27948962Y-20900229D01*
X27932117Y-20907206D01*
X27927313Y-20909446D01*
X27894163Y-20932658D01*
X27889602Y-20935564D01*
X27854548Y-20955804D01*
X27854545Y-20955806D01*
X27854543Y-20955807D01*
X27854542Y-20955809D01*
X27828523Y-20986815D01*
X27824869Y-20990803D01*
X27210994Y-21604677D01*
X27149671Y-21638162D01*
X27079979Y-21633178D01*
X27075869Y-21631561D01*
X27073958Y-21630769D01*
X26972679Y-21600047D01*
X26875934Y-21570700D01*
X26875932Y-21570699D01*
X26875934Y-21570699D01*
X26670000Y-21550417D01*
X26464067Y-21570699D01*
X26266043Y-21630769D01*
X26161785Y-21686497D01*
X26083550Y-21728315D01*
X26083548Y-21728316D01*
X26083547Y-21728317D01*
X25923589Y-21859589D01*
X25792317Y-22019547D01*
X25694769Y-22202043D01*
X25634699Y-22400067D01*
X25614417Y-22606000D01*
X25634699Y-22811932D01*
X25634700Y-22811934D01*
X25694768Y-23009954D01*
X25792315Y-23192450D01*
X25792317Y-23192452D01*
X25923589Y-23352410D01*
X25980013Y-23398715D01*
X26083550Y-23483685D01*
X26266046Y-23581232D01*
X26332551Y-23601405D01*
X26390989Y-23639702D01*
X26419446Y-23703514D01*
X26408887Y-23772581D01*
X26362663Y-23824975D01*
X26328650Y-23839841D01*
X26206514Y-23872567D01*
X26206507Y-23872570D01*
X25992422Y-23972399D01*
X25992420Y-23972400D01*
X25798926Y-24107886D01*
X25798920Y-24107891D01*
X25631891Y-24274920D01*
X25631886Y-24274926D01*
X25496400Y-24468420D01*
X25496399Y-24468422D01*
X25396570Y-24682507D01*
X25396567Y-24682513D01*
X25339364Y-24895999D01*
X25339364Y-24896000D01*
X26236314Y-24896000D01*
X26210507Y-24936156D01*
X26170000Y-25074111D01*
X26170000Y-25217889D01*
X26210507Y-25355844D01*
X26236314Y-25396000D01*
X25339364Y-25396000D01*
X23876000Y-25396000D01*
X23876000Y-20066000D01*
X25614417Y-20066000D01*
X25634699Y-20271932D01*
X25652460Y-20330482D01*
X25694768Y-20469954D01*
X25792315Y-20652450D01*
X25792317Y-20652452D01*
X25923589Y-20812410D01*
X25991081Y-20867798D01*
X26083550Y-20943685D01*
X26266046Y-21041232D01*
X26464066Y-21101300D01*
X26464065Y-21101300D01*
X26482529Y-21103118D01*
X26670000Y-21121583D01*
X26875934Y-21101300D01*
X27073954Y-21041232D01*
X27256450Y-20943685D01*
X27416410Y-20812410D01*
X27547685Y-20652450D01*
X27645232Y-20469954D01*
X27705300Y-20271934D01*
X27725583Y-20066000D01*
X27705300Y-19860066D01*
X27645232Y-19662046D01*
X27645227Y-19662038D01*
X27644439Y-19660132D01*
X27644322Y-19659051D01*
X27643463Y-19656217D01*
X27644000Y-19656053D01*
X27636973Y-19590663D01*
X27668250Y-19528185D01*
X27671292Y-19525033D01*
X28927507Y-18268819D01*
X28988830Y-18235334D01*
X29015188Y-18232500D01*
X30842205Y-18232500D01*
X30909244Y-18252185D01*
X30951563Y-18298047D01*
X31041085Y-18465532D01*
X31041090Y-18465539D01*
X31166116Y-18617883D01*
X31318460Y-18742909D01*
X31318467Y-18742913D01*
X31492266Y-18835811D01*
X31492269Y-18835811D01*
X31492273Y-18835814D01*
X31680868Y-18893024D01*
X31877000Y-18912341D01*
X32073132Y-18893024D01*
X32261727Y-18835814D01*
X32269228Y-18831805D01*
X32421439Y-18750446D01*
X32435538Y-18742910D01*
X32587883Y-18617883D01*
X32712910Y-18465538D01*
X32776638Y-18346311D01*
X32805811Y-18291733D01*
X32805811Y-18291732D01*
X32805814Y-18291727D01*
X32863024Y-18103132D01*
X32882341Y-17907000D01*
X32863024Y-17710868D01*
X32805814Y-17522273D01*
X32805811Y-17522269D01*
X32805811Y-17522266D01*
X32712913Y-17348467D01*
X32712909Y-17348460D01*
X32587883Y-17196116D01*
X32435539Y-17071090D01*
X32435532Y-17071086D01*
X32261733Y-16978188D01*
X32261727Y-16978186D01*
X32073132Y-16920976D01*
X32073129Y-16920975D01*
X31877000Y-16901659D01*
X31680870Y-16920975D01*
X31492266Y-16978188D01*
X31318467Y-17071086D01*
X31318460Y-17071090D01*
X31166116Y-17196116D01*
X31041090Y-17348460D01*
X31041085Y-17348467D01*
X30951563Y-17515953D01*
X30902601Y-17565798D01*
X30842205Y-17581500D01*
X28845922Y-17581500D01*
X28840518Y-17581264D01*
X28835107Y-17580790D01*
X28800192Y-17577735D01*
X28800191Y-17577735D01*
X28761091Y-17588212D01*
X28755811Y-17589383D01*
X28715959Y-17596410D01*
X28710961Y-17598229D01*
X28694117Y-17605206D01*
X28689313Y-17607446D01*
X28656166Y-17630656D01*
X28651606Y-17633562D01*
X28616548Y-17653804D01*
X28616540Y-17653810D01*
X28590523Y-17684815D01*
X28586869Y-17688804D01*
X27210994Y-19064678D01*
X27149671Y-19098163D01*
X27079979Y-19093179D01*
X27075862Y-19091559D01*
X27073962Y-19090772D01*
X27073954Y-19090768D01*
X26875934Y-19030700D01*
X26875932Y-19030699D01*
X26875934Y-19030699D01*
X26670000Y-19010417D01*
X26464067Y-19030699D01*
X26266043Y-19090769D01*
X26229753Y-19110167D01*
X26083550Y-19188315D01*
X26083548Y-19188316D01*
X26083547Y-19188317D01*
X25923589Y-19319589D01*
X25818216Y-19447989D01*
X25792315Y-19479550D01*
X25772219Y-19517147D01*
X25694769Y-19662043D01*
X25634699Y-19860067D01*
X25614417Y-20066000D01*
X23876000Y-20066000D01*
X23876000Y-17526000D01*
X25614417Y-17526000D01*
X25634699Y-17731932D01*
X25634700Y-17731934D01*
X25694768Y-17929954D01*
X25792315Y-18112450D01*
X25792317Y-18112452D01*
X25923589Y-18272410D01*
X26013639Y-18346311D01*
X26083550Y-18403685D01*
X26266046Y-18501232D01*
X26464066Y-18561300D01*
X26464065Y-18561300D01*
X26482529Y-18563118D01*
X26670000Y-18581583D01*
X26875934Y-18561300D01*
X27073954Y-18501232D01*
X27256450Y-18403685D01*
X27416410Y-18272410D01*
X27547685Y-18112450D01*
X27645232Y-17929954D01*
X27705300Y-17731934D01*
X27725583Y-17526000D01*
X27705300Y-17320066D01*
X27645232Y-17122046D01*
X27645227Y-17122038D01*
X27644439Y-17120132D01*
X27644322Y-17119051D01*
X27643463Y-17116217D01*
X27644000Y-17116053D01*
X27636973Y-17050663D01*
X27668250Y-16988185D01*
X27671292Y-16985032D01*
X29689507Y-14966819D01*
X29750830Y-14933334D01*
X29777188Y-14930500D01*
X30842205Y-14930500D01*
X30909244Y-14950185D01*
X30951563Y-14996047D01*
X31041085Y-15163532D01*
X31041090Y-15163539D01*
X31166116Y-15315883D01*
X31318460Y-15440909D01*
X31318467Y-15440913D01*
X31492266Y-15533811D01*
X31492269Y-15533811D01*
X31492273Y-15533814D01*
X31680868Y-15591024D01*
X31877000Y-15610341D01*
X32073132Y-15591024D01*
X32261727Y-15533814D01*
X32435538Y-15440910D01*
X32587883Y-15315883D01*
X32712910Y-15163538D01*
X32760165Y-15075131D01*
X32805811Y-14989733D01*
X32805811Y-14989732D01*
X32805814Y-14989727D01*
X32863024Y-14801132D01*
X32882341Y-14605000D01*
X41031659Y-14605000D01*
X41050975Y-14801129D01*
X41050976Y-14801132D01*
X41107055Y-14986000D01*
X41108188Y-14989733D01*
X41201086Y-15163532D01*
X41201090Y-15163539D01*
X41326116Y-15315883D01*
X41478460Y-15440909D01*
X41478467Y-15440913D01*
X41652266Y-15533811D01*
X41652269Y-15533811D01*
X41652273Y-15533814D01*
X41840868Y-15591024D01*
X42037000Y-15610341D01*
X42233132Y-15591024D01*
X42421727Y-15533814D01*
X42595538Y-15440910D01*
X42747883Y-15315883D01*
X42872910Y-15163538D01*
X42920165Y-15075131D01*
X42965811Y-14989733D01*
X42965811Y-14989732D01*
X42965814Y-14989727D01*
X43023024Y-14801132D01*
X43042341Y-14605000D01*
X43023024Y-14408868D01*
X42965814Y-14220273D01*
X42965811Y-14220269D01*
X42965811Y-14220266D01*
X42872913Y-14046467D01*
X42872909Y-14046460D01*
X42747883Y-13894116D01*
X42595539Y-13769090D01*
X42595532Y-13769086D01*
X42421733Y-13676188D01*
X42421727Y-13676186D01*
X42233132Y-13618976D01*
X42233129Y-13618975D01*
X42037000Y-13599659D01*
X41840870Y-13618975D01*
X41652266Y-13676188D01*
X41478467Y-13769086D01*
X41478460Y-13769090D01*
X41326116Y-13894116D01*
X41201090Y-14046460D01*
X41201086Y-14046467D01*
X41108188Y-14220266D01*
X41050975Y-14408870D01*
X41031659Y-14605000D01*
X32882341Y-14605000D01*
X32863024Y-14408868D01*
X32805814Y-14220273D01*
X32805811Y-14220269D01*
X32805811Y-14220266D01*
X32712913Y-14046467D01*
X32712909Y-14046460D01*
X32587883Y-13894116D01*
X32435539Y-13769090D01*
X32435532Y-13769086D01*
X32261733Y-13676188D01*
X32261727Y-13676186D01*
X32073132Y-13618976D01*
X32073129Y-13618975D01*
X31877000Y-13599659D01*
X31680870Y-13618975D01*
X31492266Y-13676188D01*
X31318467Y-13769086D01*
X31318460Y-13769090D01*
X31166116Y-13894116D01*
X31041090Y-14046460D01*
X31041085Y-14046467D01*
X30951563Y-14213953D01*
X30902601Y-14263798D01*
X30842205Y-14279500D01*
X29607922Y-14279500D01*
X29602518Y-14279264D01*
X29597107Y-14278790D01*
X29562192Y-14275735D01*
X29562191Y-14275735D01*
X29523091Y-14286212D01*
X29517811Y-14287383D01*
X29477959Y-14294410D01*
X29472961Y-14296229D01*
X29456117Y-14303206D01*
X29451313Y-14305446D01*
X29418166Y-14328656D01*
X29413606Y-14331562D01*
X29378548Y-14351804D01*
X29378540Y-14351810D01*
X29352523Y-14382815D01*
X29348869Y-14386804D01*
X27210994Y-16524678D01*
X27149671Y-16558163D01*
X27079979Y-16553179D01*
X27075862Y-16551559D01*
X27073962Y-16550772D01*
X27073954Y-16550768D01*
X26875934Y-16490700D01*
X26875932Y-16490699D01*
X26875934Y-16490699D01*
X26670000Y-16470417D01*
X26464067Y-16490699D01*
X26266043Y-16550769D01*
X26193743Y-16589415D01*
X26083550Y-16648315D01*
X26083548Y-16648316D01*
X26083547Y-16648317D01*
X25923589Y-16779589D01*
X25807558Y-16920976D01*
X25792315Y-16939550D01*
X25768848Y-16983454D01*
X25694769Y-17122043D01*
X25634699Y-17320067D01*
X25614417Y-17526000D01*
X23876000Y-17526000D01*
X23876000Y-14986000D01*
X25614417Y-14986000D01*
X25634699Y-15191932D01*
X25634700Y-15191934D01*
X25694768Y-15389954D01*
X25792315Y-15572450D01*
X25792317Y-15572452D01*
X25923589Y-15732410D01*
X26010077Y-15803388D01*
X26083550Y-15863685D01*
X26266046Y-15961232D01*
X26464066Y-16021300D01*
X26464065Y-16021300D01*
X26482529Y-16023118D01*
X26670000Y-16041583D01*
X26875934Y-16021300D01*
X27073954Y-15961232D01*
X27256450Y-15863685D01*
X27416410Y-15732410D01*
X27547685Y-15572450D01*
X27645232Y-15389954D01*
X27705300Y-15191934D01*
X27725583Y-14986000D01*
X27705300Y-14780066D01*
X27645232Y-14582046D01*
X27547685Y-14399550D01*
X27489504Y-14328656D01*
X27416410Y-14239589D01*
X27256452Y-14108317D01*
X27256453Y-14108317D01*
X27256450Y-14108315D01*
X27073954Y-14010768D01*
X26875934Y-13950700D01*
X26875932Y-13950699D01*
X26875934Y-13950699D01*
X26670000Y-13930417D01*
X26464067Y-13950699D01*
X26266043Y-14010769D01*
X26199258Y-14046467D01*
X26083550Y-14108315D01*
X26083548Y-14108316D01*
X26083547Y-14108317D01*
X25923589Y-14239589D01*
X25802775Y-14386804D01*
X25792315Y-14399550D01*
X25753643Y-14471898D01*
X25694769Y-14582043D01*
X25634699Y-14780067D01*
X25614417Y-14986000D01*
X23876000Y-14986000D01*
X23876000Y-12824388D01*
X23895685Y-12757349D01*
X23948489Y-12711594D01*
X24000384Y-12700389D01*
X64265390Y-12826612D01*
G37*
%TD.AperFunction*%
%TD*%
M02*
